M48
; DRILL file {KiCad 8.0.8} date 2025-04-04T13:06:03-0500
; FORMAT={-:-/ absolute / inch / decimal}
; #@! TF.CreationDate,2025-04-04T13:06:03-05:00
; #@! TF.GenerationSoftware,Kicad,Pcbnew,8.0.8
; #@! TF.FileFunction,Plated,1,2,PTH
FMAT,2
INCH
; #@! TA.AperFunction,Plated,PTH,ComponentDrill
T1C0.0079
; #@! TA.AperFunction,Plated,PTH,ComponentDrill
T2C0.0177
; #@! TA.AperFunction,Plated,PTH,ComponentDrill
T3C0.0295
; #@! TA.AperFunction,Plated,PTH,ComponentDrill
T4C0.0350
; #@! TA.AperFunction,Plated,PTH,ComponentDrill
T5C0.0472
; #@! TA.AperFunction,Plated,PTH,ComponentDrill
T6C0.0512
; #@! TA.AperFunction,Plated,PTH,ComponentDrill
T7C0.0791
%
G90
G05
T1
X5.0167Y-2.0575
X5.0167Y-2.1126
X5.0443Y-2.0299
X5.0443Y-2.085
X5.0443Y-2.1402
X5.0719Y-2.0575
X5.0719Y-2.1126
X5.0994Y-2.0299
X5.0994Y-2.085
X5.0994Y-2.1402
X5.127Y-2.0575
X5.127Y-2.1126
T3
X4.7819Y-4.4685
X4.8319Y-4.4685
X4.8819Y-4.4685
T4
X6.8457Y-3.8697
X6.9457Y-3.7697
X6.9457Y-3.8697
X7.0457Y-3.8697
T5
X5.6004Y-4.7953
X5.7382Y-4.7953
T6
X5.0886Y-4.9213
X5.3445Y-4.9213
X5.9744Y-3.4252
X6.2303Y-3.4252
T7
X6.7457Y-3.5197
X7.1457Y-3.5236
T2
G00X3.3287Y-3.7195
M15
G01X3.3287Y-3.7589
M16
G05
G00X3.3287Y-3.8415
M15
G01X3.3287Y-3.8888
M16
G05
G00X3.6791Y-3.7195
M15
G01X3.6791Y-3.7589
M16
G05
G00X3.6791Y-3.8415
M15
G01X3.6791Y-3.8888
M16
G05
M30
