G04 #@! TF.GenerationSoftware,KiCad,Pcbnew,8.0.8*
G04 #@! TF.CreationDate,2025-04-04T13:05:52-05:00*
G04 #@! TF.ProjectId,aqua_pcb_schem,61717561-5f70-4636-925f-736368656d2e,rev?*
G04 #@! TF.SameCoordinates,Original*
G04 #@! TF.FileFunction,Legend,Top*
G04 #@! TF.FilePolarity,Positive*
%FSLAX46Y46*%
G04 Gerber Fmt 4.6, Leading zero omitted, Abs format (unit mm)*
G04 Created by KiCad (PCBNEW 8.0.8) date 2025-04-04 13:05:52*
%MOMM*%
%LPD*%
G01*
G04 APERTURE LIST*
%ADD10C,0.150000*%
%ADD11C,0.120000*%
G04 APERTURE END LIST*
D10*
X153967261Y-120650057D02*
X153872023Y-120602438D01*
X153872023Y-120602438D02*
X153776785Y-120507200D01*
X153776785Y-120507200D02*
X153633928Y-120364342D01*
X153633928Y-120364342D02*
X153538690Y-120316723D01*
X153538690Y-120316723D02*
X153443452Y-120316723D01*
X153491071Y-120554819D02*
X153395833Y-120507200D01*
X153395833Y-120507200D02*
X153300595Y-120411961D01*
X153300595Y-120411961D02*
X153252976Y-120221485D01*
X153252976Y-120221485D02*
X153252976Y-119888152D01*
X153252976Y-119888152D02*
X153300595Y-119697676D01*
X153300595Y-119697676D02*
X153395833Y-119602438D01*
X153395833Y-119602438D02*
X153491071Y-119554819D01*
X153491071Y-119554819D02*
X153681547Y-119554819D01*
X153681547Y-119554819D02*
X153776785Y-119602438D01*
X153776785Y-119602438D02*
X153872023Y-119697676D01*
X153872023Y-119697676D02*
X153919642Y-119888152D01*
X153919642Y-119888152D02*
X153919642Y-120221485D01*
X153919642Y-120221485D02*
X153872023Y-120411961D01*
X153872023Y-120411961D02*
X153776785Y-120507200D01*
X153776785Y-120507200D02*
X153681547Y-120554819D01*
X153681547Y-120554819D02*
X153491071Y-120554819D01*
X154300595Y-119650057D02*
X154348214Y-119602438D01*
X154348214Y-119602438D02*
X154443452Y-119554819D01*
X154443452Y-119554819D02*
X154681547Y-119554819D01*
X154681547Y-119554819D02*
X154776785Y-119602438D01*
X154776785Y-119602438D02*
X154824404Y-119650057D01*
X154824404Y-119650057D02*
X154872023Y-119745295D01*
X154872023Y-119745295D02*
X154872023Y-119840533D01*
X154872023Y-119840533D02*
X154824404Y-119983390D01*
X154824404Y-119983390D02*
X154252976Y-120554819D01*
X154252976Y-120554819D02*
X154872023Y-120554819D01*
X111780833Y-96679580D02*
X111733214Y-96727200D01*
X111733214Y-96727200D02*
X111590357Y-96774819D01*
X111590357Y-96774819D02*
X111495119Y-96774819D01*
X111495119Y-96774819D02*
X111352262Y-96727200D01*
X111352262Y-96727200D02*
X111257024Y-96631961D01*
X111257024Y-96631961D02*
X111209405Y-96536723D01*
X111209405Y-96536723D02*
X111161786Y-96346247D01*
X111161786Y-96346247D02*
X111161786Y-96203390D01*
X111161786Y-96203390D02*
X111209405Y-96012914D01*
X111209405Y-96012914D02*
X111257024Y-95917676D01*
X111257024Y-95917676D02*
X111352262Y-95822438D01*
X111352262Y-95822438D02*
X111495119Y-95774819D01*
X111495119Y-95774819D02*
X111590357Y-95774819D01*
X111590357Y-95774819D02*
X111733214Y-95822438D01*
X111733214Y-95822438D02*
X111780833Y-95870057D01*
X112637976Y-96108152D02*
X112637976Y-96774819D01*
X112399881Y-95727200D02*
X112161786Y-96441485D01*
X112161786Y-96441485D02*
X112780833Y-96441485D01*
X144496667Y-86247200D02*
X144639524Y-86294819D01*
X144639524Y-86294819D02*
X144877619Y-86294819D01*
X144877619Y-86294819D02*
X144972857Y-86247200D01*
X144972857Y-86247200D02*
X145020476Y-86199580D01*
X145020476Y-86199580D02*
X145068095Y-86104342D01*
X145068095Y-86104342D02*
X145068095Y-86009104D01*
X145068095Y-86009104D02*
X145020476Y-85913866D01*
X145020476Y-85913866D02*
X144972857Y-85866247D01*
X144972857Y-85866247D02*
X144877619Y-85818628D01*
X144877619Y-85818628D02*
X144687143Y-85771009D01*
X144687143Y-85771009D02*
X144591905Y-85723390D01*
X144591905Y-85723390D02*
X144544286Y-85675771D01*
X144544286Y-85675771D02*
X144496667Y-85580533D01*
X144496667Y-85580533D02*
X144496667Y-85485295D01*
X144496667Y-85485295D02*
X144544286Y-85390057D01*
X144544286Y-85390057D02*
X144591905Y-85342438D01*
X144591905Y-85342438D02*
X144687143Y-85294819D01*
X144687143Y-85294819D02*
X144925238Y-85294819D01*
X144925238Y-85294819D02*
X145068095Y-85342438D01*
X145401429Y-85294819D02*
X145639524Y-86294819D01*
X145639524Y-86294819D02*
X145830000Y-85580533D01*
X145830000Y-85580533D02*
X146020476Y-86294819D01*
X146020476Y-86294819D02*
X146258572Y-85294819D01*
X147163333Y-86294819D02*
X146591905Y-86294819D01*
X146877619Y-86294819D02*
X146877619Y-85294819D01*
X146877619Y-85294819D02*
X146782381Y-85437676D01*
X146782381Y-85437676D02*
X146687143Y-85532914D01*
X146687143Y-85532914D02*
X146591905Y-85580533D01*
X114833333Y-92804819D02*
X114500000Y-92328628D01*
X114261905Y-92804819D02*
X114261905Y-91804819D01*
X114261905Y-91804819D02*
X114642857Y-91804819D01*
X114642857Y-91804819D02*
X114738095Y-91852438D01*
X114738095Y-91852438D02*
X114785714Y-91900057D01*
X114785714Y-91900057D02*
X114833333Y-91995295D01*
X114833333Y-91995295D02*
X114833333Y-92138152D01*
X114833333Y-92138152D02*
X114785714Y-92233390D01*
X114785714Y-92233390D02*
X114738095Y-92281009D01*
X114738095Y-92281009D02*
X114642857Y-92328628D01*
X114642857Y-92328628D02*
X114261905Y-92328628D01*
X115690476Y-92138152D02*
X115690476Y-92804819D01*
X115452381Y-91757200D02*
X115214286Y-92471485D01*
X115214286Y-92471485D02*
X115833333Y-92471485D01*
X115333333Y-77679580D02*
X115285714Y-77727200D01*
X115285714Y-77727200D02*
X115142857Y-77774819D01*
X115142857Y-77774819D02*
X115047619Y-77774819D01*
X115047619Y-77774819D02*
X114904762Y-77727200D01*
X114904762Y-77727200D02*
X114809524Y-77631961D01*
X114809524Y-77631961D02*
X114761905Y-77536723D01*
X114761905Y-77536723D02*
X114714286Y-77346247D01*
X114714286Y-77346247D02*
X114714286Y-77203390D01*
X114714286Y-77203390D02*
X114761905Y-77012914D01*
X114761905Y-77012914D02*
X114809524Y-76917676D01*
X114809524Y-76917676D02*
X114904762Y-76822438D01*
X114904762Y-76822438D02*
X115047619Y-76774819D01*
X115047619Y-76774819D02*
X115142857Y-76774819D01*
X115142857Y-76774819D02*
X115285714Y-76822438D01*
X115285714Y-76822438D02*
X115333333Y-76870057D01*
X116190476Y-76774819D02*
X116000000Y-76774819D01*
X116000000Y-76774819D02*
X115904762Y-76822438D01*
X115904762Y-76822438D02*
X115857143Y-76870057D01*
X115857143Y-76870057D02*
X115761905Y-77012914D01*
X115761905Y-77012914D02*
X115714286Y-77203390D01*
X115714286Y-77203390D02*
X115714286Y-77584342D01*
X115714286Y-77584342D02*
X115761905Y-77679580D01*
X115761905Y-77679580D02*
X115809524Y-77727200D01*
X115809524Y-77727200D02*
X115904762Y-77774819D01*
X115904762Y-77774819D02*
X116095238Y-77774819D01*
X116095238Y-77774819D02*
X116190476Y-77727200D01*
X116190476Y-77727200D02*
X116238095Y-77679580D01*
X116238095Y-77679580D02*
X116285714Y-77584342D01*
X116285714Y-77584342D02*
X116285714Y-77346247D01*
X116285714Y-77346247D02*
X116238095Y-77251009D01*
X116238095Y-77251009D02*
X116190476Y-77203390D01*
X116190476Y-77203390D02*
X116095238Y-77155771D01*
X116095238Y-77155771D02*
X115904762Y-77155771D01*
X115904762Y-77155771D02*
X115809524Y-77203390D01*
X115809524Y-77203390D02*
X115761905Y-77251009D01*
X115761905Y-77251009D02*
X115714286Y-77346247D01*
X131357142Y-97804819D02*
X131023809Y-97328628D01*
X130785714Y-97804819D02*
X130785714Y-96804819D01*
X130785714Y-96804819D02*
X131166666Y-96804819D01*
X131166666Y-96804819D02*
X131261904Y-96852438D01*
X131261904Y-96852438D02*
X131309523Y-96900057D01*
X131309523Y-96900057D02*
X131357142Y-96995295D01*
X131357142Y-96995295D02*
X131357142Y-97138152D01*
X131357142Y-97138152D02*
X131309523Y-97233390D01*
X131309523Y-97233390D02*
X131261904Y-97281009D01*
X131261904Y-97281009D02*
X131166666Y-97328628D01*
X131166666Y-97328628D02*
X130785714Y-97328628D01*
X132309523Y-97804819D02*
X131738095Y-97804819D01*
X132023809Y-97804819D02*
X132023809Y-96804819D01*
X132023809Y-96804819D02*
X131928571Y-96947676D01*
X131928571Y-96947676D02*
X131833333Y-97042914D01*
X131833333Y-97042914D02*
X131738095Y-97090533D01*
X133214285Y-96804819D02*
X132738095Y-96804819D01*
X132738095Y-96804819D02*
X132690476Y-97281009D01*
X132690476Y-97281009D02*
X132738095Y-97233390D01*
X132738095Y-97233390D02*
X132833333Y-97185771D01*
X132833333Y-97185771D02*
X133071428Y-97185771D01*
X133071428Y-97185771D02*
X133166666Y-97233390D01*
X133166666Y-97233390D02*
X133214285Y-97281009D01*
X133214285Y-97281009D02*
X133261904Y-97376247D01*
X133261904Y-97376247D02*
X133261904Y-97614342D01*
X133261904Y-97614342D02*
X133214285Y-97709580D01*
X133214285Y-97709580D02*
X133166666Y-97757200D01*
X133166666Y-97757200D02*
X133071428Y-97804819D01*
X133071428Y-97804819D02*
X132833333Y-97804819D01*
X132833333Y-97804819D02*
X132738095Y-97757200D01*
X132738095Y-97757200D02*
X132690476Y-97709580D01*
X104280833Y-78179580D02*
X104233214Y-78227200D01*
X104233214Y-78227200D02*
X104090357Y-78274819D01*
X104090357Y-78274819D02*
X103995119Y-78274819D01*
X103995119Y-78274819D02*
X103852262Y-78227200D01*
X103852262Y-78227200D02*
X103757024Y-78131961D01*
X103757024Y-78131961D02*
X103709405Y-78036723D01*
X103709405Y-78036723D02*
X103661786Y-77846247D01*
X103661786Y-77846247D02*
X103661786Y-77703390D01*
X103661786Y-77703390D02*
X103709405Y-77512914D01*
X103709405Y-77512914D02*
X103757024Y-77417676D01*
X103757024Y-77417676D02*
X103852262Y-77322438D01*
X103852262Y-77322438D02*
X103995119Y-77274819D01*
X103995119Y-77274819D02*
X104090357Y-77274819D01*
X104090357Y-77274819D02*
X104233214Y-77322438D01*
X104233214Y-77322438D02*
X104280833Y-77370057D01*
X105233214Y-78274819D02*
X104661786Y-78274819D01*
X104947500Y-78274819D02*
X104947500Y-77274819D01*
X104947500Y-77274819D02*
X104852262Y-77417676D01*
X104852262Y-77417676D02*
X104757024Y-77512914D01*
X104757024Y-77512914D02*
X104661786Y-77560533D01*
X143666666Y-117094819D02*
X143666666Y-117809104D01*
X143666666Y-117809104D02*
X143619047Y-117951961D01*
X143619047Y-117951961D02*
X143523809Y-118047200D01*
X143523809Y-118047200D02*
X143380952Y-118094819D01*
X143380952Y-118094819D02*
X143285714Y-118094819D01*
X144666666Y-118094819D02*
X144095238Y-118094819D01*
X144380952Y-118094819D02*
X144380952Y-117094819D01*
X144380952Y-117094819D02*
X144285714Y-117237676D01*
X144285714Y-117237676D02*
X144190476Y-117332914D01*
X144190476Y-117332914D02*
X144095238Y-117380533D01*
X114577142Y-102179580D02*
X114529523Y-102227200D01*
X114529523Y-102227200D02*
X114386666Y-102274819D01*
X114386666Y-102274819D02*
X114291428Y-102274819D01*
X114291428Y-102274819D02*
X114148571Y-102227200D01*
X114148571Y-102227200D02*
X114053333Y-102131961D01*
X114053333Y-102131961D02*
X114005714Y-102036723D01*
X114005714Y-102036723D02*
X113958095Y-101846247D01*
X113958095Y-101846247D02*
X113958095Y-101703390D01*
X113958095Y-101703390D02*
X114005714Y-101512914D01*
X114005714Y-101512914D02*
X114053333Y-101417676D01*
X114053333Y-101417676D02*
X114148571Y-101322438D01*
X114148571Y-101322438D02*
X114291428Y-101274819D01*
X114291428Y-101274819D02*
X114386666Y-101274819D01*
X114386666Y-101274819D02*
X114529523Y-101322438D01*
X114529523Y-101322438D02*
X114577142Y-101370057D01*
X115529523Y-102274819D02*
X114958095Y-102274819D01*
X115243809Y-102274819D02*
X115243809Y-101274819D01*
X115243809Y-101274819D02*
X115148571Y-101417676D01*
X115148571Y-101417676D02*
X115053333Y-101512914D01*
X115053333Y-101512914D02*
X114958095Y-101560533D01*
X116148571Y-101274819D02*
X116243809Y-101274819D01*
X116243809Y-101274819D02*
X116339047Y-101322438D01*
X116339047Y-101322438D02*
X116386666Y-101370057D01*
X116386666Y-101370057D02*
X116434285Y-101465295D01*
X116434285Y-101465295D02*
X116481904Y-101655771D01*
X116481904Y-101655771D02*
X116481904Y-101893866D01*
X116481904Y-101893866D02*
X116434285Y-102084342D01*
X116434285Y-102084342D02*
X116386666Y-102179580D01*
X116386666Y-102179580D02*
X116339047Y-102227200D01*
X116339047Y-102227200D02*
X116243809Y-102274819D01*
X116243809Y-102274819D02*
X116148571Y-102274819D01*
X116148571Y-102274819D02*
X116053333Y-102227200D01*
X116053333Y-102227200D02*
X116005714Y-102179580D01*
X116005714Y-102179580D02*
X115958095Y-102084342D01*
X115958095Y-102084342D02*
X115910476Y-101893866D01*
X115910476Y-101893866D02*
X115910476Y-101655771D01*
X115910476Y-101655771D02*
X115958095Y-101465295D01*
X115958095Y-101465295D02*
X116005714Y-101370057D01*
X116005714Y-101370057D02*
X116053333Y-101322438D01*
X116053333Y-101322438D02*
X116148571Y-101274819D01*
X109166666Y-107154819D02*
X109166666Y-107869104D01*
X109166666Y-107869104D02*
X109119047Y-108011961D01*
X109119047Y-108011961D02*
X109023809Y-108107200D01*
X109023809Y-108107200D02*
X108880952Y-108154819D01*
X108880952Y-108154819D02*
X108785714Y-108154819D01*
X109642857Y-108154819D02*
X109642857Y-107154819D01*
X109642857Y-107154819D02*
X110023809Y-107154819D01*
X110023809Y-107154819D02*
X110119047Y-107202438D01*
X110119047Y-107202438D02*
X110166666Y-107250057D01*
X110166666Y-107250057D02*
X110214285Y-107345295D01*
X110214285Y-107345295D02*
X110214285Y-107488152D01*
X110214285Y-107488152D02*
X110166666Y-107583390D01*
X110166666Y-107583390D02*
X110119047Y-107631009D01*
X110119047Y-107631009D02*
X110023809Y-107678628D01*
X110023809Y-107678628D02*
X109642857Y-107678628D01*
X111166666Y-108154819D02*
X110595238Y-108154819D01*
X110880952Y-108154819D02*
X110880952Y-107154819D01*
X110880952Y-107154819D02*
X110785714Y-107297676D01*
X110785714Y-107297676D02*
X110690476Y-107392914D01*
X110690476Y-107392914D02*
X110595238Y-107440533D01*
X128833333Y-84804819D02*
X128500000Y-84328628D01*
X128261905Y-84804819D02*
X128261905Y-83804819D01*
X128261905Y-83804819D02*
X128642857Y-83804819D01*
X128642857Y-83804819D02*
X128738095Y-83852438D01*
X128738095Y-83852438D02*
X128785714Y-83900057D01*
X128785714Y-83900057D02*
X128833333Y-83995295D01*
X128833333Y-83995295D02*
X128833333Y-84138152D01*
X128833333Y-84138152D02*
X128785714Y-84233390D01*
X128785714Y-84233390D02*
X128738095Y-84281009D01*
X128738095Y-84281009D02*
X128642857Y-84328628D01*
X128642857Y-84328628D02*
X128261905Y-84328628D01*
X129404762Y-84233390D02*
X129309524Y-84185771D01*
X129309524Y-84185771D02*
X129261905Y-84138152D01*
X129261905Y-84138152D02*
X129214286Y-84042914D01*
X129214286Y-84042914D02*
X129214286Y-83995295D01*
X129214286Y-83995295D02*
X129261905Y-83900057D01*
X129261905Y-83900057D02*
X129309524Y-83852438D01*
X129309524Y-83852438D02*
X129404762Y-83804819D01*
X129404762Y-83804819D02*
X129595238Y-83804819D01*
X129595238Y-83804819D02*
X129690476Y-83852438D01*
X129690476Y-83852438D02*
X129738095Y-83900057D01*
X129738095Y-83900057D02*
X129785714Y-83995295D01*
X129785714Y-83995295D02*
X129785714Y-84042914D01*
X129785714Y-84042914D02*
X129738095Y-84138152D01*
X129738095Y-84138152D02*
X129690476Y-84185771D01*
X129690476Y-84185771D02*
X129595238Y-84233390D01*
X129595238Y-84233390D02*
X129404762Y-84233390D01*
X129404762Y-84233390D02*
X129309524Y-84281009D01*
X129309524Y-84281009D02*
X129261905Y-84328628D01*
X129261905Y-84328628D02*
X129214286Y-84423866D01*
X129214286Y-84423866D02*
X129214286Y-84614342D01*
X129214286Y-84614342D02*
X129261905Y-84709580D01*
X129261905Y-84709580D02*
X129309524Y-84757200D01*
X129309524Y-84757200D02*
X129404762Y-84804819D01*
X129404762Y-84804819D02*
X129595238Y-84804819D01*
X129595238Y-84804819D02*
X129690476Y-84757200D01*
X129690476Y-84757200D02*
X129738095Y-84709580D01*
X129738095Y-84709580D02*
X129785714Y-84614342D01*
X129785714Y-84614342D02*
X129785714Y-84423866D01*
X129785714Y-84423866D02*
X129738095Y-84328628D01*
X129738095Y-84328628D02*
X129690476Y-84281009D01*
X129690476Y-84281009D02*
X129595238Y-84233390D01*
X117833333Y-88304819D02*
X117500000Y-87828628D01*
X117261905Y-88304819D02*
X117261905Y-87304819D01*
X117261905Y-87304819D02*
X117642857Y-87304819D01*
X117642857Y-87304819D02*
X117738095Y-87352438D01*
X117738095Y-87352438D02*
X117785714Y-87400057D01*
X117785714Y-87400057D02*
X117833333Y-87495295D01*
X117833333Y-87495295D02*
X117833333Y-87638152D01*
X117833333Y-87638152D02*
X117785714Y-87733390D01*
X117785714Y-87733390D02*
X117738095Y-87781009D01*
X117738095Y-87781009D02*
X117642857Y-87828628D01*
X117642857Y-87828628D02*
X117261905Y-87828628D01*
X118166667Y-87304819D02*
X118785714Y-87304819D01*
X118785714Y-87304819D02*
X118452381Y-87685771D01*
X118452381Y-87685771D02*
X118595238Y-87685771D01*
X118595238Y-87685771D02*
X118690476Y-87733390D01*
X118690476Y-87733390D02*
X118738095Y-87781009D01*
X118738095Y-87781009D02*
X118785714Y-87876247D01*
X118785714Y-87876247D02*
X118785714Y-88114342D01*
X118785714Y-88114342D02*
X118738095Y-88209580D01*
X118738095Y-88209580D02*
X118690476Y-88257200D01*
X118690476Y-88257200D02*
X118595238Y-88304819D01*
X118595238Y-88304819D02*
X118309524Y-88304819D01*
X118309524Y-88304819D02*
X118214286Y-88257200D01*
X118214286Y-88257200D02*
X118166667Y-88209580D01*
X193738095Y-125754819D02*
X193738095Y-124754819D01*
X193738095Y-125231009D02*
X194309523Y-125231009D01*
X194309523Y-125754819D02*
X194309523Y-124754819D01*
X195214285Y-125088152D02*
X195214285Y-125754819D01*
X194976190Y-124707200D02*
X194738095Y-125421485D01*
X194738095Y-125421485D02*
X195357142Y-125421485D01*
X110833333Y-88679580D02*
X110785714Y-88727200D01*
X110785714Y-88727200D02*
X110642857Y-88774819D01*
X110642857Y-88774819D02*
X110547619Y-88774819D01*
X110547619Y-88774819D02*
X110404762Y-88727200D01*
X110404762Y-88727200D02*
X110309524Y-88631961D01*
X110309524Y-88631961D02*
X110261905Y-88536723D01*
X110261905Y-88536723D02*
X110214286Y-88346247D01*
X110214286Y-88346247D02*
X110214286Y-88203390D01*
X110214286Y-88203390D02*
X110261905Y-88012914D01*
X110261905Y-88012914D02*
X110309524Y-87917676D01*
X110309524Y-87917676D02*
X110404762Y-87822438D01*
X110404762Y-87822438D02*
X110547619Y-87774819D01*
X110547619Y-87774819D02*
X110642857Y-87774819D01*
X110642857Y-87774819D02*
X110785714Y-87822438D01*
X110785714Y-87822438D02*
X110833333Y-87870057D01*
X111404762Y-88203390D02*
X111309524Y-88155771D01*
X111309524Y-88155771D02*
X111261905Y-88108152D01*
X111261905Y-88108152D02*
X111214286Y-88012914D01*
X111214286Y-88012914D02*
X111214286Y-87965295D01*
X111214286Y-87965295D02*
X111261905Y-87870057D01*
X111261905Y-87870057D02*
X111309524Y-87822438D01*
X111309524Y-87822438D02*
X111404762Y-87774819D01*
X111404762Y-87774819D02*
X111595238Y-87774819D01*
X111595238Y-87774819D02*
X111690476Y-87822438D01*
X111690476Y-87822438D02*
X111738095Y-87870057D01*
X111738095Y-87870057D02*
X111785714Y-87965295D01*
X111785714Y-87965295D02*
X111785714Y-88012914D01*
X111785714Y-88012914D02*
X111738095Y-88108152D01*
X111738095Y-88108152D02*
X111690476Y-88155771D01*
X111690476Y-88155771D02*
X111595238Y-88203390D01*
X111595238Y-88203390D02*
X111404762Y-88203390D01*
X111404762Y-88203390D02*
X111309524Y-88251009D01*
X111309524Y-88251009D02*
X111261905Y-88298628D01*
X111261905Y-88298628D02*
X111214286Y-88393866D01*
X111214286Y-88393866D02*
X111214286Y-88584342D01*
X111214286Y-88584342D02*
X111261905Y-88679580D01*
X111261905Y-88679580D02*
X111309524Y-88727200D01*
X111309524Y-88727200D02*
X111404762Y-88774819D01*
X111404762Y-88774819D02*
X111595238Y-88774819D01*
X111595238Y-88774819D02*
X111690476Y-88727200D01*
X111690476Y-88727200D02*
X111738095Y-88679580D01*
X111738095Y-88679580D02*
X111785714Y-88584342D01*
X111785714Y-88584342D02*
X111785714Y-88393866D01*
X111785714Y-88393866D02*
X111738095Y-88298628D01*
X111738095Y-88298628D02*
X111690476Y-88251009D01*
X111690476Y-88251009D02*
X111595238Y-88203390D01*
X121833333Y-78804819D02*
X121500000Y-78328628D01*
X121261905Y-78804819D02*
X121261905Y-77804819D01*
X121261905Y-77804819D02*
X121642857Y-77804819D01*
X121642857Y-77804819D02*
X121738095Y-77852438D01*
X121738095Y-77852438D02*
X121785714Y-77900057D01*
X121785714Y-77900057D02*
X121833333Y-77995295D01*
X121833333Y-77995295D02*
X121833333Y-78138152D01*
X121833333Y-78138152D02*
X121785714Y-78233390D01*
X121785714Y-78233390D02*
X121738095Y-78281009D01*
X121738095Y-78281009D02*
X121642857Y-78328628D01*
X121642857Y-78328628D02*
X121261905Y-78328628D01*
X122785714Y-78804819D02*
X122214286Y-78804819D01*
X122500000Y-78804819D02*
X122500000Y-77804819D01*
X122500000Y-77804819D02*
X122404762Y-77947676D01*
X122404762Y-77947676D02*
X122309524Y-78042914D01*
X122309524Y-78042914D02*
X122214286Y-78090533D01*
X176086666Y-100094819D02*
X176086666Y-100809104D01*
X176086666Y-100809104D02*
X176039047Y-100951961D01*
X176039047Y-100951961D02*
X175943809Y-101047200D01*
X175943809Y-101047200D02*
X175800952Y-101094819D01*
X175800952Y-101094819D02*
X175705714Y-101094819D01*
X176467619Y-100094819D02*
X177086666Y-100094819D01*
X177086666Y-100094819D02*
X176753333Y-100475771D01*
X176753333Y-100475771D02*
X176896190Y-100475771D01*
X176896190Y-100475771D02*
X176991428Y-100523390D01*
X176991428Y-100523390D02*
X177039047Y-100571009D01*
X177039047Y-100571009D02*
X177086666Y-100666247D01*
X177086666Y-100666247D02*
X177086666Y-100904342D01*
X177086666Y-100904342D02*
X177039047Y-100999580D01*
X177039047Y-100999580D02*
X176991428Y-101047200D01*
X176991428Y-101047200D02*
X176896190Y-101094819D01*
X176896190Y-101094819D02*
X176610476Y-101094819D01*
X176610476Y-101094819D02*
X176515238Y-101047200D01*
X176515238Y-101047200D02*
X176467619Y-100999580D01*
X88666666Y-91454819D02*
X88666666Y-92169104D01*
X88666666Y-92169104D02*
X88619047Y-92311961D01*
X88619047Y-92311961D02*
X88523809Y-92407200D01*
X88523809Y-92407200D02*
X88380952Y-92454819D01*
X88380952Y-92454819D02*
X88285714Y-92454819D01*
X89619047Y-91454819D02*
X89142857Y-91454819D01*
X89142857Y-91454819D02*
X89095238Y-91931009D01*
X89095238Y-91931009D02*
X89142857Y-91883390D01*
X89142857Y-91883390D02*
X89238095Y-91835771D01*
X89238095Y-91835771D02*
X89476190Y-91835771D01*
X89476190Y-91835771D02*
X89571428Y-91883390D01*
X89571428Y-91883390D02*
X89619047Y-91931009D01*
X89619047Y-91931009D02*
X89666666Y-92026247D01*
X89666666Y-92026247D02*
X89666666Y-92264342D01*
X89666666Y-92264342D02*
X89619047Y-92359580D01*
X89619047Y-92359580D02*
X89571428Y-92407200D01*
X89571428Y-92407200D02*
X89476190Y-92454819D01*
X89476190Y-92454819D02*
X89238095Y-92454819D01*
X89238095Y-92454819D02*
X89142857Y-92407200D01*
X89142857Y-92407200D02*
X89095238Y-92359580D01*
X122833333Y-85804819D02*
X122500000Y-85328628D01*
X122261905Y-85804819D02*
X122261905Y-84804819D01*
X122261905Y-84804819D02*
X122642857Y-84804819D01*
X122642857Y-84804819D02*
X122738095Y-84852438D01*
X122738095Y-84852438D02*
X122785714Y-84900057D01*
X122785714Y-84900057D02*
X122833333Y-84995295D01*
X122833333Y-84995295D02*
X122833333Y-85138152D01*
X122833333Y-85138152D02*
X122785714Y-85233390D01*
X122785714Y-85233390D02*
X122738095Y-85281009D01*
X122738095Y-85281009D02*
X122642857Y-85328628D01*
X122642857Y-85328628D02*
X122261905Y-85328628D01*
X123309524Y-85804819D02*
X123500000Y-85804819D01*
X123500000Y-85804819D02*
X123595238Y-85757200D01*
X123595238Y-85757200D02*
X123642857Y-85709580D01*
X123642857Y-85709580D02*
X123738095Y-85566723D01*
X123738095Y-85566723D02*
X123785714Y-85376247D01*
X123785714Y-85376247D02*
X123785714Y-84995295D01*
X123785714Y-84995295D02*
X123738095Y-84900057D01*
X123738095Y-84900057D02*
X123690476Y-84852438D01*
X123690476Y-84852438D02*
X123595238Y-84804819D01*
X123595238Y-84804819D02*
X123404762Y-84804819D01*
X123404762Y-84804819D02*
X123309524Y-84852438D01*
X123309524Y-84852438D02*
X123261905Y-84900057D01*
X123261905Y-84900057D02*
X123214286Y-84995295D01*
X123214286Y-84995295D02*
X123214286Y-85233390D01*
X123214286Y-85233390D02*
X123261905Y-85328628D01*
X123261905Y-85328628D02*
X123309524Y-85376247D01*
X123309524Y-85376247D02*
X123404762Y-85423866D01*
X123404762Y-85423866D02*
X123595238Y-85423866D01*
X123595238Y-85423866D02*
X123690476Y-85376247D01*
X123690476Y-85376247D02*
X123738095Y-85328628D01*
X123738095Y-85328628D02*
X123785714Y-85233390D01*
X117833333Y-97679580D02*
X117785714Y-97727200D01*
X117785714Y-97727200D02*
X117642857Y-97774819D01*
X117642857Y-97774819D02*
X117547619Y-97774819D01*
X117547619Y-97774819D02*
X117404762Y-97727200D01*
X117404762Y-97727200D02*
X117309524Y-97631961D01*
X117309524Y-97631961D02*
X117261905Y-97536723D01*
X117261905Y-97536723D02*
X117214286Y-97346247D01*
X117214286Y-97346247D02*
X117214286Y-97203390D01*
X117214286Y-97203390D02*
X117261905Y-97012914D01*
X117261905Y-97012914D02*
X117309524Y-96917676D01*
X117309524Y-96917676D02*
X117404762Y-96822438D01*
X117404762Y-96822438D02*
X117547619Y-96774819D01*
X117547619Y-96774819D02*
X117642857Y-96774819D01*
X117642857Y-96774819D02*
X117785714Y-96822438D01*
X117785714Y-96822438D02*
X117833333Y-96870057D01*
X118309524Y-97774819D02*
X118500000Y-97774819D01*
X118500000Y-97774819D02*
X118595238Y-97727200D01*
X118595238Y-97727200D02*
X118642857Y-97679580D01*
X118642857Y-97679580D02*
X118738095Y-97536723D01*
X118738095Y-97536723D02*
X118785714Y-97346247D01*
X118785714Y-97346247D02*
X118785714Y-96965295D01*
X118785714Y-96965295D02*
X118738095Y-96870057D01*
X118738095Y-96870057D02*
X118690476Y-96822438D01*
X118690476Y-96822438D02*
X118595238Y-96774819D01*
X118595238Y-96774819D02*
X118404762Y-96774819D01*
X118404762Y-96774819D02*
X118309524Y-96822438D01*
X118309524Y-96822438D02*
X118261905Y-96870057D01*
X118261905Y-96870057D02*
X118214286Y-96965295D01*
X118214286Y-96965295D02*
X118214286Y-97203390D01*
X118214286Y-97203390D02*
X118261905Y-97298628D01*
X118261905Y-97298628D02*
X118309524Y-97346247D01*
X118309524Y-97346247D02*
X118404762Y-97393866D01*
X118404762Y-97393866D02*
X118595238Y-97393866D01*
X118595238Y-97393866D02*
X118690476Y-97346247D01*
X118690476Y-97346247D02*
X118738095Y-97298628D01*
X118738095Y-97298628D02*
X118785714Y-97203390D01*
X122857142Y-97304819D02*
X122523809Y-96828628D01*
X122285714Y-97304819D02*
X122285714Y-96304819D01*
X122285714Y-96304819D02*
X122666666Y-96304819D01*
X122666666Y-96304819D02*
X122761904Y-96352438D01*
X122761904Y-96352438D02*
X122809523Y-96400057D01*
X122809523Y-96400057D02*
X122857142Y-96495295D01*
X122857142Y-96495295D02*
X122857142Y-96638152D01*
X122857142Y-96638152D02*
X122809523Y-96733390D01*
X122809523Y-96733390D02*
X122761904Y-96781009D01*
X122761904Y-96781009D02*
X122666666Y-96828628D01*
X122666666Y-96828628D02*
X122285714Y-96828628D01*
X123809523Y-97304819D02*
X123238095Y-97304819D01*
X123523809Y-97304819D02*
X123523809Y-96304819D01*
X123523809Y-96304819D02*
X123428571Y-96447676D01*
X123428571Y-96447676D02*
X123333333Y-96542914D01*
X123333333Y-96542914D02*
X123238095Y-96590533D01*
X124428571Y-96304819D02*
X124523809Y-96304819D01*
X124523809Y-96304819D02*
X124619047Y-96352438D01*
X124619047Y-96352438D02*
X124666666Y-96400057D01*
X124666666Y-96400057D02*
X124714285Y-96495295D01*
X124714285Y-96495295D02*
X124761904Y-96685771D01*
X124761904Y-96685771D02*
X124761904Y-96923866D01*
X124761904Y-96923866D02*
X124714285Y-97114342D01*
X124714285Y-97114342D02*
X124666666Y-97209580D01*
X124666666Y-97209580D02*
X124619047Y-97257200D01*
X124619047Y-97257200D02*
X124523809Y-97304819D01*
X124523809Y-97304819D02*
X124428571Y-97304819D01*
X124428571Y-97304819D02*
X124333333Y-97257200D01*
X124333333Y-97257200D02*
X124285714Y-97209580D01*
X124285714Y-97209580D02*
X124238095Y-97114342D01*
X124238095Y-97114342D02*
X124190476Y-96923866D01*
X124190476Y-96923866D02*
X124190476Y-96685771D01*
X124190476Y-96685771D02*
X124238095Y-96495295D01*
X124238095Y-96495295D02*
X124285714Y-96400057D01*
X124285714Y-96400057D02*
X124333333Y-96352438D01*
X124333333Y-96352438D02*
X124428571Y-96304819D01*
X155288095Y-104054819D02*
X155288095Y-104864342D01*
X155288095Y-104864342D02*
X155335714Y-104959580D01*
X155335714Y-104959580D02*
X155383333Y-105007200D01*
X155383333Y-105007200D02*
X155478571Y-105054819D01*
X155478571Y-105054819D02*
X155669047Y-105054819D01*
X155669047Y-105054819D02*
X155764285Y-105007200D01*
X155764285Y-105007200D02*
X155811904Y-104959580D01*
X155811904Y-104959580D02*
X155859523Y-104864342D01*
X155859523Y-104864342D02*
X155859523Y-104054819D01*
X156288095Y-104150057D02*
X156335714Y-104102438D01*
X156335714Y-104102438D02*
X156430952Y-104054819D01*
X156430952Y-104054819D02*
X156669047Y-104054819D01*
X156669047Y-104054819D02*
X156764285Y-104102438D01*
X156764285Y-104102438D02*
X156811904Y-104150057D01*
X156811904Y-104150057D02*
X156859523Y-104245295D01*
X156859523Y-104245295D02*
X156859523Y-104340533D01*
X156859523Y-104340533D02*
X156811904Y-104483390D01*
X156811904Y-104483390D02*
X156240476Y-105054819D01*
X156240476Y-105054819D02*
X156859523Y-105054819D01*
X144357142Y-93304819D02*
X144023809Y-92828628D01*
X143785714Y-93304819D02*
X143785714Y-92304819D01*
X143785714Y-92304819D02*
X144166666Y-92304819D01*
X144166666Y-92304819D02*
X144261904Y-92352438D01*
X144261904Y-92352438D02*
X144309523Y-92400057D01*
X144309523Y-92400057D02*
X144357142Y-92495295D01*
X144357142Y-92495295D02*
X144357142Y-92638152D01*
X144357142Y-92638152D02*
X144309523Y-92733390D01*
X144309523Y-92733390D02*
X144261904Y-92781009D01*
X144261904Y-92781009D02*
X144166666Y-92828628D01*
X144166666Y-92828628D02*
X143785714Y-92828628D01*
X145309523Y-93304819D02*
X144738095Y-93304819D01*
X145023809Y-93304819D02*
X145023809Y-92304819D01*
X145023809Y-92304819D02*
X144928571Y-92447676D01*
X144928571Y-92447676D02*
X144833333Y-92542914D01*
X144833333Y-92542914D02*
X144738095Y-92590533D01*
X145690476Y-92400057D02*
X145738095Y-92352438D01*
X145738095Y-92352438D02*
X145833333Y-92304819D01*
X145833333Y-92304819D02*
X146071428Y-92304819D01*
X146071428Y-92304819D02*
X146166666Y-92352438D01*
X146166666Y-92352438D02*
X146214285Y-92400057D01*
X146214285Y-92400057D02*
X146261904Y-92495295D01*
X146261904Y-92495295D02*
X146261904Y-92590533D01*
X146261904Y-92590533D02*
X146214285Y-92733390D01*
X146214285Y-92733390D02*
X145642857Y-93304819D01*
X145642857Y-93304819D02*
X146261904Y-93304819D01*
X135357142Y-84804819D02*
X135023809Y-84328628D01*
X134785714Y-84804819D02*
X134785714Y-83804819D01*
X134785714Y-83804819D02*
X135166666Y-83804819D01*
X135166666Y-83804819D02*
X135261904Y-83852438D01*
X135261904Y-83852438D02*
X135309523Y-83900057D01*
X135309523Y-83900057D02*
X135357142Y-83995295D01*
X135357142Y-83995295D02*
X135357142Y-84138152D01*
X135357142Y-84138152D02*
X135309523Y-84233390D01*
X135309523Y-84233390D02*
X135261904Y-84281009D01*
X135261904Y-84281009D02*
X135166666Y-84328628D01*
X135166666Y-84328628D02*
X134785714Y-84328628D01*
X136309523Y-84804819D02*
X135738095Y-84804819D01*
X136023809Y-84804819D02*
X136023809Y-83804819D01*
X136023809Y-83804819D02*
X135928571Y-83947676D01*
X135928571Y-83947676D02*
X135833333Y-84042914D01*
X135833333Y-84042914D02*
X135738095Y-84090533D01*
X136642857Y-83804819D02*
X137261904Y-83804819D01*
X137261904Y-83804819D02*
X136928571Y-84185771D01*
X136928571Y-84185771D02*
X137071428Y-84185771D01*
X137071428Y-84185771D02*
X137166666Y-84233390D01*
X137166666Y-84233390D02*
X137214285Y-84281009D01*
X137214285Y-84281009D02*
X137261904Y-84376247D01*
X137261904Y-84376247D02*
X137261904Y-84614342D01*
X137261904Y-84614342D02*
X137214285Y-84709580D01*
X137214285Y-84709580D02*
X137166666Y-84757200D01*
X137166666Y-84757200D02*
X137071428Y-84804819D01*
X137071428Y-84804819D02*
X136785714Y-84804819D01*
X136785714Y-84804819D02*
X136690476Y-84757200D01*
X136690476Y-84757200D02*
X136642857Y-84709580D01*
X69238095Y-30754819D02*
X69238095Y-29754819D01*
X69238095Y-30231009D02*
X69809523Y-30231009D01*
X69809523Y-30754819D02*
X69809523Y-29754819D01*
X70809523Y-30754819D02*
X70238095Y-30754819D01*
X70523809Y-30754819D02*
X70523809Y-29754819D01*
X70523809Y-29754819D02*
X70428571Y-29897676D01*
X70428571Y-29897676D02*
X70333333Y-29992914D01*
X70333333Y-29992914D02*
X70238095Y-30040533D01*
X116333333Y-83304819D02*
X116000000Y-82828628D01*
X115761905Y-83304819D02*
X115761905Y-82304819D01*
X115761905Y-82304819D02*
X116142857Y-82304819D01*
X116142857Y-82304819D02*
X116238095Y-82352438D01*
X116238095Y-82352438D02*
X116285714Y-82400057D01*
X116285714Y-82400057D02*
X116333333Y-82495295D01*
X116333333Y-82495295D02*
X116333333Y-82638152D01*
X116333333Y-82638152D02*
X116285714Y-82733390D01*
X116285714Y-82733390D02*
X116238095Y-82781009D01*
X116238095Y-82781009D02*
X116142857Y-82828628D01*
X116142857Y-82828628D02*
X115761905Y-82828628D01*
X116714286Y-82400057D02*
X116761905Y-82352438D01*
X116761905Y-82352438D02*
X116857143Y-82304819D01*
X116857143Y-82304819D02*
X117095238Y-82304819D01*
X117095238Y-82304819D02*
X117190476Y-82352438D01*
X117190476Y-82352438D02*
X117238095Y-82400057D01*
X117238095Y-82400057D02*
X117285714Y-82495295D01*
X117285714Y-82495295D02*
X117285714Y-82590533D01*
X117285714Y-82590533D02*
X117238095Y-82733390D01*
X117238095Y-82733390D02*
X116666667Y-83304819D01*
X116666667Y-83304819D02*
X117285714Y-83304819D01*
X119279819Y-62661904D02*
X120089342Y-62661904D01*
X120089342Y-62661904D02*
X120184580Y-62614285D01*
X120184580Y-62614285D02*
X120232200Y-62566666D01*
X120232200Y-62566666D02*
X120279819Y-62471428D01*
X120279819Y-62471428D02*
X120279819Y-62280952D01*
X120279819Y-62280952D02*
X120232200Y-62185714D01*
X120232200Y-62185714D02*
X120184580Y-62138095D01*
X120184580Y-62138095D02*
X120089342Y-62090476D01*
X120089342Y-62090476D02*
X119279819Y-62090476D01*
X119279819Y-61185714D02*
X119279819Y-61376190D01*
X119279819Y-61376190D02*
X119327438Y-61471428D01*
X119327438Y-61471428D02*
X119375057Y-61519047D01*
X119375057Y-61519047D02*
X119517914Y-61614285D01*
X119517914Y-61614285D02*
X119708390Y-61661904D01*
X119708390Y-61661904D02*
X120089342Y-61661904D01*
X120089342Y-61661904D02*
X120184580Y-61614285D01*
X120184580Y-61614285D02*
X120232200Y-61566666D01*
X120232200Y-61566666D02*
X120279819Y-61471428D01*
X120279819Y-61471428D02*
X120279819Y-61280952D01*
X120279819Y-61280952D02*
X120232200Y-61185714D01*
X120232200Y-61185714D02*
X120184580Y-61138095D01*
X120184580Y-61138095D02*
X120089342Y-61090476D01*
X120089342Y-61090476D02*
X119851247Y-61090476D01*
X119851247Y-61090476D02*
X119756009Y-61138095D01*
X119756009Y-61138095D02*
X119708390Y-61185714D01*
X119708390Y-61185714D02*
X119660771Y-61280952D01*
X119660771Y-61280952D02*
X119660771Y-61471428D01*
X119660771Y-61471428D02*
X119708390Y-61566666D01*
X119708390Y-61566666D02*
X119756009Y-61614285D01*
X119756009Y-61614285D02*
X119851247Y-61661904D01*
X101280833Y-86679580D02*
X101233214Y-86727200D01*
X101233214Y-86727200D02*
X101090357Y-86774819D01*
X101090357Y-86774819D02*
X100995119Y-86774819D01*
X100995119Y-86774819D02*
X100852262Y-86727200D01*
X100852262Y-86727200D02*
X100757024Y-86631961D01*
X100757024Y-86631961D02*
X100709405Y-86536723D01*
X100709405Y-86536723D02*
X100661786Y-86346247D01*
X100661786Y-86346247D02*
X100661786Y-86203390D01*
X100661786Y-86203390D02*
X100709405Y-86012914D01*
X100709405Y-86012914D02*
X100757024Y-85917676D01*
X100757024Y-85917676D02*
X100852262Y-85822438D01*
X100852262Y-85822438D02*
X100995119Y-85774819D01*
X100995119Y-85774819D02*
X101090357Y-85774819D01*
X101090357Y-85774819D02*
X101233214Y-85822438D01*
X101233214Y-85822438D02*
X101280833Y-85870057D01*
X101661786Y-85870057D02*
X101709405Y-85822438D01*
X101709405Y-85822438D02*
X101804643Y-85774819D01*
X101804643Y-85774819D02*
X102042738Y-85774819D01*
X102042738Y-85774819D02*
X102137976Y-85822438D01*
X102137976Y-85822438D02*
X102185595Y-85870057D01*
X102185595Y-85870057D02*
X102233214Y-85965295D01*
X102233214Y-85965295D02*
X102233214Y-86060533D01*
X102233214Y-86060533D02*
X102185595Y-86203390D01*
X102185595Y-86203390D02*
X101614167Y-86774819D01*
X101614167Y-86774819D02*
X102233214Y-86774819D01*
X104780833Y-91679580D02*
X104733214Y-91727200D01*
X104733214Y-91727200D02*
X104590357Y-91774819D01*
X104590357Y-91774819D02*
X104495119Y-91774819D01*
X104495119Y-91774819D02*
X104352262Y-91727200D01*
X104352262Y-91727200D02*
X104257024Y-91631961D01*
X104257024Y-91631961D02*
X104209405Y-91536723D01*
X104209405Y-91536723D02*
X104161786Y-91346247D01*
X104161786Y-91346247D02*
X104161786Y-91203390D01*
X104161786Y-91203390D02*
X104209405Y-91012914D01*
X104209405Y-91012914D02*
X104257024Y-90917676D01*
X104257024Y-90917676D02*
X104352262Y-90822438D01*
X104352262Y-90822438D02*
X104495119Y-90774819D01*
X104495119Y-90774819D02*
X104590357Y-90774819D01*
X104590357Y-90774819D02*
X104733214Y-90822438D01*
X104733214Y-90822438D02*
X104780833Y-90870057D01*
X105114167Y-90774819D02*
X105733214Y-90774819D01*
X105733214Y-90774819D02*
X105399881Y-91155771D01*
X105399881Y-91155771D02*
X105542738Y-91155771D01*
X105542738Y-91155771D02*
X105637976Y-91203390D01*
X105637976Y-91203390D02*
X105685595Y-91251009D01*
X105685595Y-91251009D02*
X105733214Y-91346247D01*
X105733214Y-91346247D02*
X105733214Y-91584342D01*
X105733214Y-91584342D02*
X105685595Y-91679580D01*
X105685595Y-91679580D02*
X105637976Y-91727200D01*
X105637976Y-91727200D02*
X105542738Y-91774819D01*
X105542738Y-91774819D02*
X105257024Y-91774819D01*
X105257024Y-91774819D02*
X105161786Y-91727200D01*
X105161786Y-91727200D02*
X105114167Y-91679580D01*
X109333333Y-83179580D02*
X109285714Y-83227200D01*
X109285714Y-83227200D02*
X109142857Y-83274819D01*
X109142857Y-83274819D02*
X109047619Y-83274819D01*
X109047619Y-83274819D02*
X108904762Y-83227200D01*
X108904762Y-83227200D02*
X108809524Y-83131961D01*
X108809524Y-83131961D02*
X108761905Y-83036723D01*
X108761905Y-83036723D02*
X108714286Y-82846247D01*
X108714286Y-82846247D02*
X108714286Y-82703390D01*
X108714286Y-82703390D02*
X108761905Y-82512914D01*
X108761905Y-82512914D02*
X108809524Y-82417676D01*
X108809524Y-82417676D02*
X108904762Y-82322438D01*
X108904762Y-82322438D02*
X109047619Y-82274819D01*
X109047619Y-82274819D02*
X109142857Y-82274819D01*
X109142857Y-82274819D02*
X109285714Y-82322438D01*
X109285714Y-82322438D02*
X109333333Y-82370057D01*
X109666667Y-82274819D02*
X110333333Y-82274819D01*
X110333333Y-82274819D02*
X109904762Y-83274819D01*
X157738095Y-95704819D02*
X157738095Y-96514342D01*
X157738095Y-96514342D02*
X157785714Y-96609580D01*
X157785714Y-96609580D02*
X157833333Y-96657200D01*
X157833333Y-96657200D02*
X157928571Y-96704819D01*
X157928571Y-96704819D02*
X158119047Y-96704819D01*
X158119047Y-96704819D02*
X158214285Y-96657200D01*
X158214285Y-96657200D02*
X158261904Y-96609580D01*
X158261904Y-96609580D02*
X158309523Y-96514342D01*
X158309523Y-96514342D02*
X158309523Y-95704819D01*
X159309523Y-96704819D02*
X158738095Y-96704819D01*
X159023809Y-96704819D02*
X159023809Y-95704819D01*
X159023809Y-95704819D02*
X158928571Y-95847676D01*
X158928571Y-95847676D02*
X158833333Y-95942914D01*
X158833333Y-95942914D02*
X158738095Y-95990533D01*
X130833333Y-77804819D02*
X130500000Y-77328628D01*
X130261905Y-77804819D02*
X130261905Y-76804819D01*
X130261905Y-76804819D02*
X130642857Y-76804819D01*
X130642857Y-76804819D02*
X130738095Y-76852438D01*
X130738095Y-76852438D02*
X130785714Y-76900057D01*
X130785714Y-76900057D02*
X130833333Y-76995295D01*
X130833333Y-76995295D02*
X130833333Y-77138152D01*
X130833333Y-77138152D02*
X130785714Y-77233390D01*
X130785714Y-77233390D02*
X130738095Y-77281009D01*
X130738095Y-77281009D02*
X130642857Y-77328628D01*
X130642857Y-77328628D02*
X130261905Y-77328628D01*
X131690476Y-76804819D02*
X131500000Y-76804819D01*
X131500000Y-76804819D02*
X131404762Y-76852438D01*
X131404762Y-76852438D02*
X131357143Y-76900057D01*
X131357143Y-76900057D02*
X131261905Y-77042914D01*
X131261905Y-77042914D02*
X131214286Y-77233390D01*
X131214286Y-77233390D02*
X131214286Y-77614342D01*
X131214286Y-77614342D02*
X131261905Y-77709580D01*
X131261905Y-77709580D02*
X131309524Y-77757200D01*
X131309524Y-77757200D02*
X131404762Y-77804819D01*
X131404762Y-77804819D02*
X131595238Y-77804819D01*
X131595238Y-77804819D02*
X131690476Y-77757200D01*
X131690476Y-77757200D02*
X131738095Y-77709580D01*
X131738095Y-77709580D02*
X131785714Y-77614342D01*
X131785714Y-77614342D02*
X131785714Y-77376247D01*
X131785714Y-77376247D02*
X131738095Y-77281009D01*
X131738095Y-77281009D02*
X131690476Y-77233390D01*
X131690476Y-77233390D02*
X131595238Y-77185771D01*
X131595238Y-77185771D02*
X131404762Y-77185771D01*
X131404762Y-77185771D02*
X131309524Y-77233390D01*
X131309524Y-77233390D02*
X131261905Y-77281009D01*
X131261905Y-77281009D02*
X131214286Y-77376247D01*
X106280833Y-99679580D02*
X106233214Y-99727200D01*
X106233214Y-99727200D02*
X106090357Y-99774819D01*
X106090357Y-99774819D02*
X105995119Y-99774819D01*
X105995119Y-99774819D02*
X105852262Y-99727200D01*
X105852262Y-99727200D02*
X105757024Y-99631961D01*
X105757024Y-99631961D02*
X105709405Y-99536723D01*
X105709405Y-99536723D02*
X105661786Y-99346247D01*
X105661786Y-99346247D02*
X105661786Y-99203390D01*
X105661786Y-99203390D02*
X105709405Y-99012914D01*
X105709405Y-99012914D02*
X105757024Y-98917676D01*
X105757024Y-98917676D02*
X105852262Y-98822438D01*
X105852262Y-98822438D02*
X105995119Y-98774819D01*
X105995119Y-98774819D02*
X106090357Y-98774819D01*
X106090357Y-98774819D02*
X106233214Y-98822438D01*
X106233214Y-98822438D02*
X106280833Y-98870057D01*
X107185595Y-98774819D02*
X106709405Y-98774819D01*
X106709405Y-98774819D02*
X106661786Y-99251009D01*
X106661786Y-99251009D02*
X106709405Y-99203390D01*
X106709405Y-99203390D02*
X106804643Y-99155771D01*
X106804643Y-99155771D02*
X107042738Y-99155771D01*
X107042738Y-99155771D02*
X107137976Y-99203390D01*
X107137976Y-99203390D02*
X107185595Y-99251009D01*
X107185595Y-99251009D02*
X107233214Y-99346247D01*
X107233214Y-99346247D02*
X107233214Y-99584342D01*
X107233214Y-99584342D02*
X107185595Y-99679580D01*
X107185595Y-99679580D02*
X107137976Y-99727200D01*
X107137976Y-99727200D02*
X107042738Y-99774819D01*
X107042738Y-99774819D02*
X106804643Y-99774819D01*
X106804643Y-99774819D02*
X106709405Y-99727200D01*
X106709405Y-99727200D02*
X106661786Y-99679580D01*
X124357142Y-91304819D02*
X124023809Y-90828628D01*
X123785714Y-91304819D02*
X123785714Y-90304819D01*
X123785714Y-90304819D02*
X124166666Y-90304819D01*
X124166666Y-90304819D02*
X124261904Y-90352438D01*
X124261904Y-90352438D02*
X124309523Y-90400057D01*
X124309523Y-90400057D02*
X124357142Y-90495295D01*
X124357142Y-90495295D02*
X124357142Y-90638152D01*
X124357142Y-90638152D02*
X124309523Y-90733390D01*
X124309523Y-90733390D02*
X124261904Y-90781009D01*
X124261904Y-90781009D02*
X124166666Y-90828628D01*
X124166666Y-90828628D02*
X123785714Y-90828628D01*
X125309523Y-91304819D02*
X124738095Y-91304819D01*
X125023809Y-91304819D02*
X125023809Y-90304819D01*
X125023809Y-90304819D02*
X124928571Y-90447676D01*
X124928571Y-90447676D02*
X124833333Y-90542914D01*
X124833333Y-90542914D02*
X124738095Y-90590533D01*
X126166666Y-90638152D02*
X126166666Y-91304819D01*
X125928571Y-90257200D02*
X125690476Y-90971485D01*
X125690476Y-90971485D02*
X126309523Y-90971485D01*
X178738095Y-31754819D02*
X178738095Y-30754819D01*
X178738095Y-31231009D02*
X179309523Y-31231009D01*
X179309523Y-31754819D02*
X179309523Y-30754819D01*
X179738095Y-30850057D02*
X179785714Y-30802438D01*
X179785714Y-30802438D02*
X179880952Y-30754819D01*
X179880952Y-30754819D02*
X180119047Y-30754819D01*
X180119047Y-30754819D02*
X180214285Y-30802438D01*
X180214285Y-30802438D02*
X180261904Y-30850057D01*
X180261904Y-30850057D02*
X180309523Y-30945295D01*
X180309523Y-30945295D02*
X180309523Y-31040533D01*
X180309523Y-31040533D02*
X180261904Y-31183390D01*
X180261904Y-31183390D02*
X179690476Y-31754819D01*
X179690476Y-31754819D02*
X180309523Y-31754819D01*
X154467261Y-113150057D02*
X154372023Y-113102438D01*
X154372023Y-113102438D02*
X154276785Y-113007200D01*
X154276785Y-113007200D02*
X154133928Y-112864342D01*
X154133928Y-112864342D02*
X154038690Y-112816723D01*
X154038690Y-112816723D02*
X153943452Y-112816723D01*
X153991071Y-113054819D02*
X153895833Y-113007200D01*
X153895833Y-113007200D02*
X153800595Y-112911961D01*
X153800595Y-112911961D02*
X153752976Y-112721485D01*
X153752976Y-112721485D02*
X153752976Y-112388152D01*
X153752976Y-112388152D02*
X153800595Y-112197676D01*
X153800595Y-112197676D02*
X153895833Y-112102438D01*
X153895833Y-112102438D02*
X153991071Y-112054819D01*
X153991071Y-112054819D02*
X154181547Y-112054819D01*
X154181547Y-112054819D02*
X154276785Y-112102438D01*
X154276785Y-112102438D02*
X154372023Y-112197676D01*
X154372023Y-112197676D02*
X154419642Y-112388152D01*
X154419642Y-112388152D02*
X154419642Y-112721485D01*
X154419642Y-112721485D02*
X154372023Y-112911961D01*
X154372023Y-112911961D02*
X154276785Y-113007200D01*
X154276785Y-113007200D02*
X154181547Y-113054819D01*
X154181547Y-113054819D02*
X153991071Y-113054819D01*
X155372023Y-113054819D02*
X154800595Y-113054819D01*
X155086309Y-113054819D02*
X155086309Y-112054819D01*
X155086309Y-112054819D02*
X154991071Y-112197676D01*
X154991071Y-112197676D02*
X154895833Y-112292914D01*
X154895833Y-112292914D02*
X154800595Y-112340533D01*
X121833333Y-103304819D02*
X121500000Y-102828628D01*
X121261905Y-103304819D02*
X121261905Y-102304819D01*
X121261905Y-102304819D02*
X121642857Y-102304819D01*
X121642857Y-102304819D02*
X121738095Y-102352438D01*
X121738095Y-102352438D02*
X121785714Y-102400057D01*
X121785714Y-102400057D02*
X121833333Y-102495295D01*
X121833333Y-102495295D02*
X121833333Y-102638152D01*
X121833333Y-102638152D02*
X121785714Y-102733390D01*
X121785714Y-102733390D02*
X121738095Y-102781009D01*
X121738095Y-102781009D02*
X121642857Y-102828628D01*
X121642857Y-102828628D02*
X121261905Y-102828628D01*
X122738095Y-102304819D02*
X122261905Y-102304819D01*
X122261905Y-102304819D02*
X122214286Y-102781009D01*
X122214286Y-102781009D02*
X122261905Y-102733390D01*
X122261905Y-102733390D02*
X122357143Y-102685771D01*
X122357143Y-102685771D02*
X122595238Y-102685771D01*
X122595238Y-102685771D02*
X122690476Y-102733390D01*
X122690476Y-102733390D02*
X122738095Y-102781009D01*
X122738095Y-102781009D02*
X122785714Y-102876247D01*
X122785714Y-102876247D02*
X122785714Y-103114342D01*
X122785714Y-103114342D02*
X122738095Y-103209580D01*
X122738095Y-103209580D02*
X122690476Y-103257200D01*
X122690476Y-103257200D02*
X122595238Y-103304819D01*
X122595238Y-103304819D02*
X122357143Y-103304819D01*
X122357143Y-103304819D02*
X122261905Y-103257200D01*
X122261905Y-103257200D02*
X122214286Y-103209580D01*
X131336667Y-122707200D02*
X131479524Y-122754819D01*
X131479524Y-122754819D02*
X131717619Y-122754819D01*
X131717619Y-122754819D02*
X131812857Y-122707200D01*
X131812857Y-122707200D02*
X131860476Y-122659580D01*
X131860476Y-122659580D02*
X131908095Y-122564342D01*
X131908095Y-122564342D02*
X131908095Y-122469104D01*
X131908095Y-122469104D02*
X131860476Y-122373866D01*
X131860476Y-122373866D02*
X131812857Y-122326247D01*
X131812857Y-122326247D02*
X131717619Y-122278628D01*
X131717619Y-122278628D02*
X131527143Y-122231009D01*
X131527143Y-122231009D02*
X131431905Y-122183390D01*
X131431905Y-122183390D02*
X131384286Y-122135771D01*
X131384286Y-122135771D02*
X131336667Y-122040533D01*
X131336667Y-122040533D02*
X131336667Y-121945295D01*
X131336667Y-121945295D02*
X131384286Y-121850057D01*
X131384286Y-121850057D02*
X131431905Y-121802438D01*
X131431905Y-121802438D02*
X131527143Y-121754819D01*
X131527143Y-121754819D02*
X131765238Y-121754819D01*
X131765238Y-121754819D02*
X131908095Y-121802438D01*
X132241429Y-121754819D02*
X132479524Y-122754819D01*
X132479524Y-122754819D02*
X132670000Y-122040533D01*
X132670000Y-122040533D02*
X132860476Y-122754819D01*
X132860476Y-122754819D02*
X133098572Y-121754819D01*
X133431905Y-121850057D02*
X133479524Y-121802438D01*
X133479524Y-121802438D02*
X133574762Y-121754819D01*
X133574762Y-121754819D02*
X133812857Y-121754819D01*
X133812857Y-121754819D02*
X133908095Y-121802438D01*
X133908095Y-121802438D02*
X133955714Y-121850057D01*
X133955714Y-121850057D02*
X134003333Y-121945295D01*
X134003333Y-121945295D02*
X134003333Y-122040533D01*
X134003333Y-122040533D02*
X133955714Y-122183390D01*
X133955714Y-122183390D02*
X133384286Y-122754819D01*
X133384286Y-122754819D02*
X134003333Y-122754819D01*
X158229166Y-65404819D02*
X158229166Y-66119104D01*
X158229166Y-66119104D02*
X158181547Y-66261961D01*
X158181547Y-66261961D02*
X158086309Y-66357200D01*
X158086309Y-66357200D02*
X157943452Y-66404819D01*
X157943452Y-66404819D02*
X157848214Y-66404819D01*
X159133928Y-65738152D02*
X159133928Y-66404819D01*
X158895833Y-65357200D02*
X158657738Y-66071485D01*
X158657738Y-66071485D02*
X159276785Y-66071485D01*
X129857142Y-104804819D02*
X129523809Y-104328628D01*
X129285714Y-104804819D02*
X129285714Y-103804819D01*
X129285714Y-103804819D02*
X129666666Y-103804819D01*
X129666666Y-103804819D02*
X129761904Y-103852438D01*
X129761904Y-103852438D02*
X129809523Y-103900057D01*
X129809523Y-103900057D02*
X129857142Y-103995295D01*
X129857142Y-103995295D02*
X129857142Y-104138152D01*
X129857142Y-104138152D02*
X129809523Y-104233390D01*
X129809523Y-104233390D02*
X129761904Y-104281009D01*
X129761904Y-104281009D02*
X129666666Y-104328628D01*
X129666666Y-104328628D02*
X129285714Y-104328628D01*
X130809523Y-104804819D02*
X130238095Y-104804819D01*
X130523809Y-104804819D02*
X130523809Y-103804819D01*
X130523809Y-103804819D02*
X130428571Y-103947676D01*
X130428571Y-103947676D02*
X130333333Y-104042914D01*
X130333333Y-104042914D02*
X130238095Y-104090533D01*
X131761904Y-104804819D02*
X131190476Y-104804819D01*
X131476190Y-104804819D02*
X131476190Y-103804819D01*
X131476190Y-103804819D02*
X131380952Y-103947676D01*
X131380952Y-103947676D02*
X131285714Y-104042914D01*
X131285714Y-104042914D02*
X131190476Y-104090533D01*
X141238095Y-99454819D02*
X141238095Y-100264342D01*
X141238095Y-100264342D02*
X141285714Y-100359580D01*
X141285714Y-100359580D02*
X141333333Y-100407200D01*
X141333333Y-100407200D02*
X141428571Y-100454819D01*
X141428571Y-100454819D02*
X141619047Y-100454819D01*
X141619047Y-100454819D02*
X141714285Y-100407200D01*
X141714285Y-100407200D02*
X141761904Y-100359580D01*
X141761904Y-100359580D02*
X141809523Y-100264342D01*
X141809523Y-100264342D02*
X141809523Y-99454819D01*
X142714285Y-99788152D02*
X142714285Y-100454819D01*
X142476190Y-99407200D02*
X142238095Y-100121485D01*
X142238095Y-100121485D02*
X142857142Y-100121485D01*
X121968095Y-109394819D02*
X121968095Y-110204342D01*
X121968095Y-110204342D02*
X122015714Y-110299580D01*
X122015714Y-110299580D02*
X122063333Y-110347200D01*
X122063333Y-110347200D02*
X122158571Y-110394819D01*
X122158571Y-110394819D02*
X122349047Y-110394819D01*
X122349047Y-110394819D02*
X122444285Y-110347200D01*
X122444285Y-110347200D02*
X122491904Y-110299580D01*
X122491904Y-110299580D02*
X122539523Y-110204342D01*
X122539523Y-110204342D02*
X122539523Y-109394819D01*
X123491904Y-109394819D02*
X123015714Y-109394819D01*
X123015714Y-109394819D02*
X122968095Y-109871009D01*
X122968095Y-109871009D02*
X123015714Y-109823390D01*
X123015714Y-109823390D02*
X123110952Y-109775771D01*
X123110952Y-109775771D02*
X123349047Y-109775771D01*
X123349047Y-109775771D02*
X123444285Y-109823390D01*
X123444285Y-109823390D02*
X123491904Y-109871009D01*
X123491904Y-109871009D02*
X123539523Y-109966247D01*
X123539523Y-109966247D02*
X123539523Y-110204342D01*
X123539523Y-110204342D02*
X123491904Y-110299580D01*
X123491904Y-110299580D02*
X123444285Y-110347200D01*
X123444285Y-110347200D02*
X123349047Y-110394819D01*
X123349047Y-110394819D02*
X123110952Y-110394819D01*
X123110952Y-110394819D02*
X123015714Y-110347200D01*
X123015714Y-110347200D02*
X122968095Y-110299580D01*
X69738095Y-119254819D02*
X69738095Y-118254819D01*
X69738095Y-118731009D02*
X70309523Y-118731009D01*
X70309523Y-119254819D02*
X70309523Y-118254819D01*
X70690476Y-118254819D02*
X71309523Y-118254819D01*
X71309523Y-118254819D02*
X70976190Y-118635771D01*
X70976190Y-118635771D02*
X71119047Y-118635771D01*
X71119047Y-118635771D02*
X71214285Y-118683390D01*
X71214285Y-118683390D02*
X71261904Y-118731009D01*
X71261904Y-118731009D02*
X71309523Y-118826247D01*
X71309523Y-118826247D02*
X71309523Y-119064342D01*
X71309523Y-119064342D02*
X71261904Y-119159580D01*
X71261904Y-119159580D02*
X71214285Y-119207200D01*
X71214285Y-119207200D02*
X71119047Y-119254819D01*
X71119047Y-119254819D02*
X70833333Y-119254819D01*
X70833333Y-119254819D02*
X70738095Y-119207200D01*
X70738095Y-119207200D02*
X70690476Y-119159580D01*
D11*
X154062500Y-120940000D02*
X153412500Y-120940000D01*
X154062500Y-120940000D02*
X154712500Y-120940000D01*
X154062500Y-124060000D02*
X153412500Y-124060000D01*
X154062500Y-124060000D02*
X154712500Y-124060000D01*
X152900000Y-120990000D02*
X152660000Y-120660000D01*
X153140000Y-120660000D01*
X152900000Y-120990000D01*
G36*
X152900000Y-120990000D02*
G01*
X152660000Y-120660000D01*
X153140000Y-120660000D01*
X152900000Y-120990000D01*
G37*
X111738748Y-97265000D02*
X112261252Y-97265000D01*
X111738748Y-98735000D02*
X112261252Y-98735000D01*
X151900000Y-85610000D02*
X151900000Y-85150000D01*
X151900000Y-88850000D02*
X151900000Y-88390000D01*
X151900000Y-88850000D02*
X158100000Y-88850000D01*
X158100000Y-85150000D02*
X151900000Y-85150000D01*
X158100000Y-85610000D02*
X158100000Y-85150000D01*
X158100000Y-88390000D02*
X159100000Y-88390000D01*
X158100000Y-88850000D02*
X158100000Y-88390000D01*
X156500000Y-87550000D02*
X153650000Y-87550000D01*
X153650000Y-86500000D01*
X156500000Y-86500000D01*
X156500000Y-87550000D01*
X114772936Y-93265000D02*
X115227064Y-93265000D01*
X114772936Y-94735000D02*
X115227064Y-94735000D01*
X115238748Y-78265000D02*
X115761252Y-78265000D01*
X115238748Y-79735000D02*
X115761252Y-79735000D01*
X131772936Y-98265000D02*
X132227064Y-98265000D01*
X131772936Y-99735000D02*
X132227064Y-99735000D01*
X104238748Y-78765000D02*
X104761252Y-78765000D01*
X104238748Y-80235000D02*
X104761252Y-80235000D01*
X140200000Y-125960000D02*
X140200000Y-126600000D01*
X140200000Y-126600000D02*
X140600000Y-126600000D01*
X140440000Y-118640000D02*
X140440000Y-126360000D01*
X140440000Y-118640000D02*
X147560000Y-118640000D01*
X140440000Y-124800000D02*
X147560000Y-124800000D01*
X140440000Y-125900000D02*
X147560000Y-125900000D01*
X140440000Y-126360000D02*
X147560000Y-126360000D01*
X144605000Y-122741000D02*
X144476000Y-122869000D01*
X144775000Y-122981000D02*
X144681000Y-123074000D01*
X146820000Y-120525000D02*
X146726000Y-120619000D01*
X147025000Y-120731000D02*
X146896000Y-120859000D01*
X147560000Y-118640000D02*
X147560000Y-126360000D01*
X140824642Y-122689894D02*
G75*
G02*
X140810000Y-120934000I1425356J889894D01*
G01*
X141360106Y-120374642D02*
G75*
G02*
X143116000Y-120360000I889894J-1425356D01*
G01*
X142278674Y-123480099D02*
G75*
G02*
X141384000Y-123240000I-28671J1680113D01*
G01*
X143140264Y-123224721D02*
G75*
G02*
X142250000Y-123480000I-890261J1424711D01*
G01*
X143675504Y-120909807D02*
G75*
G02*
X143675000Y-122691000I-1425507J-890193D01*
G01*
X147430000Y-121800000D02*
G75*
G02*
X144070000Y-121800000I-1680000J0D01*
G01*
X144070000Y-121800000D02*
G75*
G02*
X147430000Y-121800000I1680000J0D01*
G01*
X115011248Y-102765000D02*
X115533752Y-102765000D01*
X115011248Y-104235000D02*
X115533752Y-104235000D01*
X107950000Y-108500000D02*
X112050000Y-108500000D01*
X107950000Y-110500000D02*
X107950000Y-108500000D01*
X108400000Y-111000000D02*
X109000000Y-111000000D01*
X108700000Y-110700000D02*
X108400000Y-111000000D01*
X108700000Y-110700000D02*
X109000000Y-111000000D01*
X112050000Y-108500000D02*
X112050000Y-110500000D01*
X112050000Y-110500000D02*
X107950000Y-110500000D01*
X128772936Y-85265000D02*
X129227064Y-85265000D01*
X128772936Y-86735000D02*
X129227064Y-86735000D01*
X117772936Y-88765000D02*
X118227064Y-88765000D01*
X117772936Y-90235000D02*
X118227064Y-90235000D01*
X110738748Y-89265000D02*
X111261252Y-89265000D01*
X110738748Y-90735000D02*
X111261252Y-90735000D01*
X121772936Y-79265000D02*
X122227064Y-79265000D01*
X121772936Y-80735000D02*
X122227064Y-80735000D01*
X169070000Y-83840000D02*
X183770000Y-83840000D01*
X169070000Y-99490000D02*
X169070000Y-83840000D01*
X176420000Y-84040000D02*
X175420000Y-85040000D01*
X176420000Y-84040000D02*
X177420000Y-85040000D01*
X183770000Y-83840000D02*
X183770000Y-99490000D01*
X183770000Y-99490000D02*
X169070000Y-99490000D01*
X84020000Y-93445000D02*
X84020000Y-93740000D01*
X84020000Y-96840000D02*
X84020000Y-96210000D01*
X93980000Y-93445000D02*
X84020000Y-93445000D01*
X93980000Y-93740000D02*
X93980000Y-93445000D01*
X93980000Y-96840000D02*
X93980000Y-96210000D01*
X122772936Y-86265000D02*
X123227064Y-86265000D01*
X122772936Y-87735000D02*
X123227064Y-87735000D01*
X117738748Y-98265000D02*
X118261252Y-98265000D01*
X117738748Y-99735000D02*
X118261252Y-99735000D01*
X123272936Y-97765000D02*
X123727064Y-97765000D01*
X123272936Y-99235000D02*
X123727064Y-99235000D01*
X155340000Y-105690000D02*
X156750000Y-105690000D01*
X155350000Y-108010000D02*
X156750000Y-108010000D01*
X154970000Y-105740000D02*
X154730000Y-105410000D01*
X155210000Y-105410000D01*
X154970000Y-105740000D01*
G36*
X154970000Y-105740000D02*
G01*
X154730000Y-105410000D01*
X155210000Y-105410000D01*
X154970000Y-105740000D01*
G37*
X144772936Y-93765000D02*
X145227064Y-93765000D01*
X144772936Y-95235000D02*
X145227064Y-95235000D01*
X135772936Y-85265000D02*
X136227064Y-85265000D01*
X135772936Y-86735000D02*
X136227064Y-86735000D01*
X116272936Y-83765000D02*
X116727064Y-83765000D01*
X116272936Y-85235000D02*
X116727064Y-85235000D01*
X121125000Y-37600000D02*
X121125000Y-43800000D01*
X121125000Y-37600000D02*
X139525000Y-37600000D01*
X121125000Y-62450000D02*
X121125000Y-63450000D01*
X121125000Y-63450000D02*
X122625000Y-63450000D01*
X139525000Y-37600000D02*
X139525000Y-43800000D01*
X139525000Y-63450000D02*
X138025000Y-63450000D01*
X139525000Y-63450000D02*
X139525000Y-62450000D01*
X121125000Y-44475000D02*
X120625000Y-44475000D01*
X121125000Y-43975000D01*
X121125000Y-44475000D01*
G36*
X121125000Y-44475000D02*
G01*
X120625000Y-44475000D01*
X121125000Y-43975000D01*
X121125000Y-44475000D01*
G37*
X101238748Y-87265000D02*
X101761252Y-87265000D01*
X101238748Y-88735000D02*
X101761252Y-88735000D01*
X104738748Y-92265000D02*
X105261252Y-92265000D01*
X104738748Y-93735000D02*
X105261252Y-93735000D01*
X109238748Y-83765000D02*
X109761252Y-83765000D01*
X109238748Y-85235000D02*
X109761252Y-85235000D01*
X157790000Y-97340000D02*
X159200000Y-97340000D01*
X157800000Y-99660000D02*
X159200000Y-99660000D01*
X157420000Y-97390000D02*
X157180000Y-97060000D01*
X157660000Y-97060000D01*
X157420000Y-97390000D01*
G36*
X157420000Y-97390000D02*
G01*
X157180000Y-97060000D01*
X157660000Y-97060000D01*
X157420000Y-97390000D01*
G37*
X130772936Y-78265000D02*
X131227064Y-78265000D01*
X130772936Y-79735000D02*
X131227064Y-79735000D01*
X106238748Y-100265000D02*
X106761252Y-100265000D01*
X106238748Y-101735000D02*
X106761252Y-101735000D01*
X124772936Y-91765000D02*
X125227064Y-91765000D01*
X124772936Y-93235000D02*
X125227064Y-93235000D01*
X154562500Y-113440000D02*
X153912500Y-113440000D01*
X154562500Y-113440000D02*
X155212500Y-113440000D01*
X154562500Y-116560000D02*
X153912500Y-116560000D01*
X154562500Y-116560000D02*
X155212500Y-116560000D01*
X153400000Y-113490000D02*
X153160000Y-113160000D01*
X153640000Y-113160000D01*
X153400000Y-113490000D01*
G36*
X153400000Y-113490000D02*
G01*
X153160000Y-113160000D01*
X153640000Y-113160000D01*
X153400000Y-113490000D01*
G37*
X121772936Y-103765000D02*
X122227064Y-103765000D01*
X121772936Y-105235000D02*
X122227064Y-105235000D01*
X129400000Y-123150000D02*
X129400000Y-123610000D01*
X129400000Y-123610000D02*
X128400000Y-123610000D01*
X129400000Y-126390000D02*
X129400000Y-126850000D01*
X129400000Y-126850000D02*
X135600000Y-126850000D01*
X135600000Y-123150000D02*
X129400000Y-123150000D01*
X135600000Y-123150000D02*
X135600000Y-123610000D01*
X135600000Y-126390000D02*
X135600000Y-126850000D01*
X131000000Y-124450000D02*
X133850000Y-124450000D01*
X133850000Y-125500000D01*
X131000000Y-125500000D01*
X131000000Y-124450000D01*
X153952500Y-67615000D02*
X153952500Y-67380000D01*
X153952500Y-76360000D02*
X153952500Y-75885000D01*
X154427500Y-67140000D02*
X154252500Y-67140000D01*
X154427500Y-76360000D02*
X153952500Y-76360000D01*
X162697500Y-67140000D02*
X163172500Y-67140000D01*
X162697500Y-76360000D02*
X163172500Y-76360000D01*
X163172500Y-67140000D02*
X163172500Y-67615000D01*
X163172500Y-76360000D02*
X163172500Y-75885000D01*
X153952500Y-67140000D02*
X153712500Y-66810000D01*
X154192500Y-66810000D01*
X153952500Y-67140000D01*
G36*
X153952500Y-67140000D02*
G01*
X153712500Y-66810000D01*
X154192500Y-66810000D01*
X153952500Y-67140000D01*
G37*
X130272936Y-105265000D02*
X130727064Y-105265000D01*
X130272936Y-106735000D02*
X130727064Y-106735000D01*
X140150000Y-101090000D02*
X143910000Y-101090000D01*
X140150000Y-107910000D02*
X143910000Y-107910000D01*
X143910000Y-101090000D02*
X143910000Y-102350000D01*
X143910000Y-107910000D02*
X143910000Y-106650000D01*
X138870000Y-101190000D02*
X138630000Y-100860000D01*
X139110000Y-100860000D01*
X138870000Y-101190000D01*
G36*
X138870000Y-101190000D02*
G01*
X138630000Y-100860000D01*
X139110000Y-100860000D01*
X138870000Y-101190000D01*
G37*
X120930000Y-115350000D02*
X124530000Y-115350000D01*
X120891522Y-115338478D02*
G75*
G02*
X122730000Y-110899999I1838478J1838478D01*
G01*
X122730000Y-110900000D02*
G75*
G02*
X124568478Y-115338478I0J-2600000D01*
G01*
M02*
