G04 #@! TF.GenerationSoftware,KiCad,Pcbnew,8.0.8*
G04 #@! TF.CreationDate,2025-04-04T13:05:52-05:00*
G04 #@! TF.ProjectId,aqua_pcb_schem,61717561-5f70-4636-925f-736368656d2e,rev?*
G04 #@! TF.SameCoordinates,Original*
G04 #@! TF.FileFunction,Paste,Top*
G04 #@! TF.FilePolarity,Positive*
%FSLAX46Y46*%
G04 Gerber Fmt 4.6, Leading zero omitted, Abs format (unit mm)*
G04 Created by KiCad (PCBNEW 8.0.8) date 2025-04-04 13:05:52*
%MOMM*%
%LPD*%
G01*
G04 APERTURE LIST*
G04 Aperture macros list*
%AMRoundRect*
0 Rectangle with rounded corners*
0 $1 Rounding radius*
0 $2 $3 $4 $5 $6 $7 $8 $9 X,Y pos of 4 corners*
0 Add a 4 corners polygon primitive as box body*
4,1,4,$2,$3,$4,$5,$6,$7,$8,$9,$2,$3,0*
0 Add four circle primitives for the rounded corners*
1,1,$1+$1,$2,$3*
1,1,$1+$1,$4,$5*
1,1,$1+$1,$6,$7*
1,1,$1+$1,$8,$9*
0 Add four rect primitives between the rounded corners*
20,1,$1+$1,$2,$3,$4,$5,0*
20,1,$1+$1,$4,$5,$6,$7,0*
20,1,$1+$1,$6,$7,$8,$9,0*
20,1,$1+$1,$8,$9,$2,$3,0*%
G04 Aperture macros list end*
%ADD10RoundRect,0.150000X-0.587500X-0.150000X0.587500X-0.150000X0.587500X0.150000X-0.587500X0.150000X0*%
%ADD11RoundRect,0.250000X-0.337500X-0.475000X0.337500X-0.475000X0.337500X0.475000X-0.337500X0.475000X0*%
%ADD12RoundRect,0.250000X-0.350000X-0.450000X0.350000X-0.450000X0.350000X0.450000X-0.350000X0.450000X0*%
%ADD13RoundRect,0.075000X-0.075000X-0.300000X0.075000X-0.300000X0.075000X0.300000X-0.075000X0.300000X0*%
%ADD14RoundRect,0.062500X-0.062500X-0.312500X0.062500X-0.312500X0.062500X0.312500X-0.062500X0.312500X0*%
%ADD15RoundRect,0.100000X-0.225000X-0.100000X0.225000X-0.100000X0.225000X0.100000X-0.225000X0.100000X0*%
%ADD16R,0.900000X0.900000*%
%ADD17R,1.500000X0.900000*%
%ADD18R,0.900000X1.500000*%
%ADD19RoundRect,0.250000X-0.300000X-0.300000X0.300000X-0.300000X0.300000X0.300000X-0.300000X0.300000X0*%
%ADD20RoundRect,0.062500X-0.350000X-0.062500X0.350000X-0.062500X0.350000X0.062500X-0.350000X0.062500X0*%
%ADD21RoundRect,0.062500X-0.062500X-0.350000X0.062500X-0.350000X0.062500X0.350000X-0.062500X0.350000X0*%
%ADD22RoundRect,0.375000X-0.625000X-0.375000X0.625000X-0.375000X0.625000X0.375000X-0.625000X0.375000X0*%
%ADD23RoundRect,0.500000X-0.500000X-1.400000X0.500000X-1.400000X0.500000X1.400000X-0.500000X1.400000X0*%
G04 APERTURE END LIST*
D10*
X153125000Y-121550000D03*
X153125000Y-123450000D03*
X155000000Y-122500000D03*
D11*
X110962500Y-98000000D03*
X113037500Y-98000000D03*
D12*
X114000000Y-94000000D03*
X116000000Y-94000000D03*
D11*
X114462500Y-79000000D03*
X116537500Y-79000000D03*
D12*
X131000000Y-99000000D03*
X133000000Y-99000000D03*
D11*
X103462500Y-79500000D03*
X105537500Y-79500000D03*
X114235000Y-103500000D03*
X116310000Y-103500000D03*
D12*
X128000000Y-86000000D03*
X130000000Y-86000000D03*
X117000000Y-89500000D03*
X119000000Y-89500000D03*
D11*
X109962500Y-90000000D03*
X112037500Y-90000000D03*
D12*
X121000000Y-80000000D03*
X123000000Y-80000000D03*
D13*
X85450000Y-94800000D03*
D14*
X85950000Y-94800000D03*
D13*
X92550000Y-94800000D03*
D14*
X87750000Y-94800000D03*
X88250000Y-94800000D03*
X88750000Y-94800000D03*
X89250000Y-94800000D03*
X89750000Y-94800000D03*
X90250000Y-94800000D03*
X92050000Y-94800000D03*
X92000000Y-96050000D03*
X90500000Y-96050000D03*
X90000000Y-96050000D03*
X89500000Y-96050000D03*
X88500000Y-96050000D03*
X88000000Y-96050000D03*
X87500000Y-96050000D03*
X86000000Y-96050000D03*
D12*
X122000000Y-87000000D03*
X124000000Y-87000000D03*
D11*
X116962500Y-99000000D03*
X119037500Y-99000000D03*
D12*
X122500000Y-98500000D03*
X124500000Y-98500000D03*
D15*
X155100000Y-106200000D03*
X155100000Y-106850000D03*
X155100000Y-107500000D03*
X157000000Y-107500000D03*
X157000000Y-106200000D03*
D12*
X144000000Y-94500000D03*
X146000000Y-94500000D03*
X135000000Y-86000000D03*
X137000000Y-86000000D03*
X115500000Y-84500000D03*
X117500000Y-84500000D03*
D16*
X127425000Y-51560000D03*
X127425000Y-52960000D03*
X127425000Y-54360000D03*
X128825000Y-51560000D03*
X128825000Y-52960000D03*
X128825000Y-54360000D03*
X130225000Y-51560000D03*
X130225000Y-52960000D03*
X130225000Y-54360000D03*
D17*
X121575000Y-45240000D03*
X121575000Y-46510000D03*
X121575000Y-47780000D03*
X121575000Y-49050000D03*
X121575000Y-50320000D03*
X121575000Y-51590000D03*
X121575000Y-52860000D03*
X121575000Y-54130000D03*
X121575000Y-55400000D03*
X121575000Y-56670000D03*
X121575000Y-57940000D03*
X121575000Y-59210000D03*
X121575000Y-60480000D03*
X121575000Y-61750000D03*
D18*
X123340000Y-63000000D03*
X124610000Y-63000000D03*
X125880000Y-63000000D03*
X127150000Y-63000000D03*
X128420000Y-63000000D03*
X129690000Y-63000000D03*
X130960000Y-63000000D03*
X132230000Y-63000000D03*
X133500000Y-63000000D03*
X134770000Y-63000000D03*
X136040000Y-63000000D03*
X137310000Y-63000000D03*
D17*
X139075000Y-61750000D03*
X139075000Y-60480000D03*
X139075000Y-59210000D03*
X139075000Y-57940000D03*
X139075000Y-56670000D03*
X139075000Y-55400000D03*
X139075000Y-54130000D03*
X139075000Y-52860000D03*
X139075000Y-51590000D03*
X139075000Y-50320000D03*
X139075000Y-49050000D03*
X139075000Y-47780000D03*
X139075000Y-46510000D03*
X139075000Y-45240000D03*
D11*
X100462500Y-88000000D03*
X102537500Y-88000000D03*
X103962500Y-93000000D03*
X106037500Y-93000000D03*
X108462500Y-84500000D03*
X110537500Y-84500000D03*
D15*
X157550000Y-97850000D03*
X157550000Y-98500000D03*
X157550000Y-99150000D03*
X159450000Y-99150000D03*
X159450000Y-97850000D03*
D12*
X130000000Y-79000000D03*
X132000000Y-79000000D03*
D11*
X105462500Y-101000000D03*
X107537500Y-101000000D03*
D12*
X124000000Y-92500000D03*
X126000000Y-92500000D03*
D10*
X153625000Y-114050000D03*
X153625000Y-115950000D03*
X155500000Y-115000000D03*
D12*
X121000000Y-104500000D03*
X123000000Y-104500000D03*
D19*
X157192500Y-70380000D03*
X157192500Y-71750000D03*
X157192500Y-73120000D03*
X158562500Y-70380000D03*
X158562500Y-71750000D03*
X158562500Y-73120000D03*
X159932500Y-70380000D03*
X159932500Y-71750000D03*
X159932500Y-73120000D03*
D20*
X154125000Y-68000000D03*
X154125000Y-68500000D03*
X154125000Y-69000000D03*
X154125000Y-69500000D03*
X154125000Y-70000000D03*
X154125000Y-70500000D03*
X154125000Y-71000000D03*
X154125000Y-71500000D03*
X154125000Y-72000000D03*
X154125000Y-72500000D03*
X154125000Y-73000000D03*
X154125000Y-73500000D03*
X154125000Y-74000000D03*
X154125000Y-74500000D03*
X154125000Y-75000000D03*
X154125000Y-75500000D03*
D21*
X154812500Y-76187500D03*
X155312500Y-76187500D03*
X155812500Y-76187500D03*
X156312500Y-76187500D03*
X156812500Y-76187500D03*
X157312500Y-76187500D03*
X157812500Y-76187500D03*
X158312500Y-76187500D03*
X158812500Y-76187500D03*
X159312500Y-76187500D03*
X159812500Y-76187500D03*
X160312500Y-76187500D03*
X160812500Y-76187500D03*
X161312500Y-76187500D03*
X161812500Y-76187500D03*
X162312500Y-76187500D03*
D20*
X163000000Y-75500000D03*
X163000000Y-75000000D03*
X163000000Y-74500000D03*
X163000000Y-74000000D03*
X163000000Y-73500000D03*
X163000000Y-73000000D03*
X163000000Y-72500000D03*
X163000000Y-72000000D03*
X163000000Y-71500000D03*
X163000000Y-71000000D03*
X163000000Y-70500000D03*
X163000000Y-70000000D03*
X163000000Y-69500000D03*
X163000000Y-69000000D03*
X163000000Y-68500000D03*
X163000000Y-68000000D03*
D21*
X162312500Y-67312500D03*
X161812500Y-67312500D03*
X161312500Y-67312500D03*
X160812500Y-67312500D03*
X160312500Y-67312500D03*
X159812500Y-67312500D03*
X159312500Y-67312500D03*
X158812500Y-67312500D03*
X158312500Y-67312500D03*
X157812500Y-67312500D03*
X157312500Y-67312500D03*
X156812500Y-67312500D03*
X156312500Y-67312500D03*
X155812500Y-67312500D03*
X155312500Y-67312500D03*
X154812500Y-67312500D03*
D12*
X129500000Y-106000000D03*
X131500000Y-106000000D03*
D22*
X138850000Y-102200000D03*
X138850000Y-104500000D03*
X138850000Y-106800000D03*
D23*
X145150000Y-104500000D03*
M02*
